<?xml version="1.0" encoding="utf-8"?>
<!-- Generator: Adobe Illustrator 24.0.2, SVG Export Plug-In . SVG Version: 6.00 Build 0)  -->
<svg version="1.1" id="Capa_1" xmlns="http://www.w3.org/2000/svg" xmlns:xlink="http://www.w3.org/1999/xlink" x="0px" y="0px"
	 viewBox="0 0 751 162.1" style="enable-background:new 0 0 751 162.1;" xml:space="preserve">
<style type="text/css">
	.st0{fill:#366570;}
	.st1{fill:#46A17C;}
	.st2{fill:#45A27C;}
	.st3{fill:#49A27B;}
	.st4{fill:#45A17C;}
	.st5{fill:#49A17B;}
	.st6{fill:#A9CC9B;}
	.st7{fill:#366470;}
	.st8{fill:#A8CA9A;}
	.st9{fill:#A8CB9A;}
	.st10{fill:#A7C99A;}
	.st11{fill:#A7CA9A;}
	.st12{fill:#449B7B;}
	.st13{fill:#A7C999;}
	.st14{fill:#A0C197;}
	.st15{fill:#A0C297;}
	.st16{fill:#9BBB95;}
	.st17{fill:#9DBD96;}
	.st18{fill:#489C7B;}
	.st19{fill:#459B7B;}
</style>
<g>
	<path class="st0" d="M406.3,129.8c-0.1-4.5-1.8-8.4-5.2-11.5c-1.7-1.6-3.4-3.2-5-4.8c-1.1-1-1.3-3.6-3.6-2.5
		c-1.8,0.9-1.2,2.9-1.2,4.5c-0.3,7-0.6,13.9-1,20.9c-0.2,3.7-4.4,7.2-7.9,6.1c-3.6-1-1.6-4-1.4-6.3c0.5-5.8,2-11.5,1.2-17.4
		c-0.4-2.8-1.1-6.2-4.6-6.2c-3.3,0-4.4,3.2-5,6c-0.3,1.3-0.3,2.7-0.2,4c0.5,4.8,1.1,9.6,1.6,14.3c0.2,1.9,1.3,4.4-1,5.4
		c-2.2,0.9-4.6-0.2-6.5-1.5c-1.5-1.1-1.4-3-1.6-4.6c-1.1-6.9-0.3-13.9-0.7-20.9c-0.1-1.6,0.3-3.6-1.5-4.5c-2.3-1.1-2.5,1.5-3.6,2.5
		c-1.2,1.1-2.4,2.3-3.7,3.3c-4.8,4-7.2,9-7,15.3c0.1,3.7-0.1,7.3,0,11c0.1,2.9-1.3,7.5,0.8,8.4c2.7,1.1,4.7-3.2,7.2-5
		c1.7-1.2,3.2-4.5,5.1-3.3c5.3,3.4,15,0.6,15.5,11.6c2.1-3.2,1.2-6.7,4.9-8.1c11.6-4.3,11.5-4.4,21.1,3.7c0.7,0.6,1.4,1.8,2.4,1.4
		c1.4-0.5,1-2,1-3C406.4,142.4,406.4,136.1,406.3,129.8z"/>
	<path class="st1" d="M390,50.3c-7.4-5.9-18-5.9-25.4,0.2c-7.6,6.2-9.7,16.8-4.8,25.7c1.3,2.3,1.8,4.5,1.6,7.1
		c-0.4,5.8-0.6,11.6-0.9,17.4c-0.1,1.3-0.1,3,1.7,3.1c2,0,1.4-1.9,1.5-3c0.3-3,0.7-6,0.5-9c-0.3-4.5,2.1-6.2,6.5-7.3
		c0,6.1-0.1,11.9,0,17.6c0,1.7-0.8,4.3,1.8,4.4c2.9,0.1,1.8-2.6,1.8-4.2c0.1-10.1,0.1-20.3,0.1-30.4c0-6.5,0-13,0-19.5
		c0-1.7,0.3-3,2.4-3.1c1.3,0,2.9-0.3,3.2,1.5c0.3,1.3,0.2,2.6,0.2,4c0,16,0,31.9,0.1,47.9c0,1.4-1.1,3.9,1.6,3.8
		c2.4-0.1,1.8-2.4,1.9-3.9c0.1-4.7,0-9.3,0.1-14c0-1.4-0.7-3.5,1-3.9c1.1-0.3,2.6,1.1,3.9,1.7c1.7,0.8,1.4,2.4,1.5,3.9
		c0.2,3.2,0.2,6.3,0.5,9.5c0.1,1.4-0.9,4,1.7,3.8c2.2-0.2,1.5-2.6,1.5-4.2c-0.1-4.2-0.5-8.3-0.7-12.5c-0.2-3.9-0.5-7.7,1.6-11.6
		C399.9,66.9,397.5,56.3,390,50.3z M367.6,79.9c-9.1-5.8-9.1-21.8,0.1-27.4c2-1.2,3.1-0.9,3.1,1.6c0,4,0,8,0,12c0,4,0,8,0,12
		C370.7,80.4,370.2,81.6,367.6,79.9z M387,80c-2.1,1.5-3,0.7-3-1.6c0-4.1,0-8.3,0-12.4c0-4,0-8,0-11.9c0-2.5,1.1-2.9,3-1.6
		c4.7,3.3,7.1,7.9,7.1,13.5C394.2,71.8,391.7,76.6,387,80z"/>
	<path class="st2" d="M467.8,84.7c-1.6-2.5-1.9-4.2,0.8-6.7c5.4-5.1,2.6-13.8-4.6-15.6c-2.6-0.6-5.3-0.5-7.9-0.7c0,0.1,0,0.1,0,0.2
		c-1.8,0-3.7,0-5.5,0c-2,0-3.1,0.8-3,2.9c0,8.7,0.1,17.3,0,26c0,2.7,1.6,2.8,3.6,2.8c2,0,3.2-0.6,3.1-2.8c-0.1-1.7-0.1-3.3,0-5
		c0.1-1.5-0.6-3.5,2-3.8c2.1-0.2,3.5,0.4,4.4,2.4c1.2,2.6,2.5,5.1,3.9,7.5c1.5,2.6,4.3,2.3,6.2,1.4c2.2-1.1-0.1-2.8-0.6-4.2
		C469.6,87.5,468.7,86.1,467.8,84.7z M458.2,76.9c-4,0.3-4.5-1.8-4-4.7c-0.3-3.2-0.3-5.6,3.9-5.3c3.5,0.2,6.5,0.8,6.4,5.1
		C464.4,76.1,461.5,76.6,458.2,76.9z"/>
	<path class="st2" d="M596.2,77.4c-0.5-7-5.8-9.7-12.1-6.7c-0.9,0.4-2.2,1.6-2.5,1.3c-4-3.3-8.1-2.4-12.7-1.1
		c-1.5,0.4-4.7-1.9-6-0.1c-1.1,1.6-0.5,4.5-0.6,6.8c-0.1,1.3,0,2.7,0,4c0,2.3-0.1,4.7,0,7c0.1,2.1-1,4.9,2.9,5
		c3.9,0.1,3.1-2.5,3.2-4.8c0.1-3.3,0.1-6.7,0-10c0-2.7,1.3-4.1,3.8-4.3c2.8-0.2,3.8,1.6,3.8,4.1c0,3.3-0.1,6.7,0,10
		c0.1,2.2-0.8,4.8,3,4.9c3.8,0.1,3.2-2.5,3.2-4.7c0-3.3,0.1-6.7,0-10c-0.1-2.7,1.3-4.1,3.8-4.3c2.9-0.2,3.7,1.7,3.7,4.2
		c0.1,4,0.1,8,0.1,12c0,2.2,1.2,2.8,3.2,2.8c1.9,0,3.2-0.4,3.2-2.7C596.2,86.4,596.5,81.9,596.2,77.4z"/>
	<path class="st3" d="M145.3,70.2c-2.9,0.9-5.4-0.1-8.1-0.4c-2.4-0.3-4.6,0.3-6.5,1.8c-4.1,3.4-5.2,12.1-2.3,17.6
		c2.4,4.5,6.4,5.7,13.3,3.8c-1.3,5.5-3,6.3-8.7,4.2c-1.6-0.6-2.7-1-3.7,0.7c-0.7,1.3-0.4,2.2,0.7,3c3.9,2.6,8.1,2.9,12.4,1.2
		c3.8-1.5,5.9-4.4,6-8.4c0.2-6.8,0-13.6,0.1-20.4C148.4,70.9,147.6,69.5,145.3,70.2z M138.1,89c-4.6,0-4.9-3.7-5-7.1
		c0-3.4,0.4-7.2,4.9-7.2c5.1,0,3.9,4.2,4.1,7.4C141.9,85,143,89,138.1,89z"/>
	<path class="st4" d="M520.3,76.9c0-4.5-0.1-9,0-13.4c0-2.1-0.4-3.4-3-3.4c-2.7,0-3.6,1.1-3.4,3.5c0.1,0.8-0.1,1.7,0,2.5
		c0.3,3.3,0,5-4.4,3.9c-5.8-1.5-10,3-10.5,10.1c-0.6,8.4,3,13.9,9.1,14c0.7,0,1.4,0.1,2-0.2c2.1-1,3.9-1.3,6.3-0.4
		c2.2,0.9,4.2,0.1,4-3.1C520.2,85.8,520.3,81.4,520.3,76.9z M513.4,87.2c-1.1,1.9-2.9,2.3-4.7,1.7c-3.3-1.2-3.3-4.2-3.3-7
		c0-2.8-0.1-5.8,3.3-7c1.9-0.6,3.6-0.1,4.7,1.7c1,1.7,0.4,3.6,0.6,5.2C513.8,83.6,514.4,85.5,513.4,87.2z"/>
	<path class="st3" d="M123.8,71.5c0.2-0.1,0.1-0.6,0.1-0.9c-6.8-2.9-8.8,3.8-13.5,7.3c0-5.4-0.1-9.9,0-14.5c0-2.2-0.5-3.4-3-3.3
		c-2.4,0-3.2,0.9-3.2,3.2c0.1,9,0.1,17.9,0,26.9c0,2.1,0.4,3.4,3,3.5c2.8,0.1,3.4-1.3,3.2-3.7c-0.1-1.8-0.6-4.1,1.6-4.7
		c2.4-0.7,2.8,2,3.6,3.4c2.1,3.8,4.5,6.5,9.6,4.2c-0.5-0.9-0.8-1.9-1.4-2.6C118.3,84,115.5,77.8,123.8,71.5z"/>
	<path class="st5" d="M75.9,84.9C75.9,84.9,75.9,84.9,75.9,84.9c0-1.7,0-3.3,0-5c-0.2-8.2-5.2-12-13.1-9.9c-2.9,0.8-5.2,2.2-6.2,5.2
		c-0.2,0.6-0.1,1.4,0.7,1.6c2.5,0.6,4.8,0.3,6.6-2c1-1.3,2.8-0.9,4.1,0c1,0.7,1.5,1.8,1.2,3c-0.5,1.8-2.1,1.1-3.3,1.3
		c-1,0.2-2,0.2-3,0.4c-5.5,1.2-8.1,4.5-7,9c1.1,4.4,5.7,6.5,10.8,4.9c1.1-0.3,1.9-1,3.2-0.8c6.1,1.2,6.1,1.1,5.9-4.8
		C75.9,86.9,75.9,85.9,75.9,84.9z M69.4,85.8c-0.2,2.6-1.9,3.3-3.7,3.5c-2.3-0.1-3.6-1-3.4-3.1c0.3-2.9,2.5-3.1,4.8-3.3
		C69.1,82.8,69.5,84.1,69.4,85.8z"/>
	<path class="st5" d="M168.5,70.7c-3.9-1.9-7.8-1.6-11.4,0.8c-4,2.7-5.8,9.1-4.2,14.4c1.6,5.1,5.6,8.1,11.7,8.1
		c1.6,0.2,3.6-0.2,5.3-1.3c1.4-0.9,3.9-1.4,2.6-3.9c-1.1-2.2-2.7-1.5-4.5-0.5c-2.3,1.3-4.8,1.2-7-0.6c-0.9-0.7-1.8-1.7-1.3-3
		c0.5-1.2,1.7-0.9,2.6-0.9c2.8-0.1,5.7-0.1,8.5,0c2.3,0.1,3.4-0.8,3.3-3.2C173.7,76.5,172.5,72.7,168.5,70.7z M163.4,79.6
		c-1.4-0.5-3.8,0.8-3.7-1.9c0.1-2.3,2.1-3.2,4.2-3.2c1.8,0,3.3,1,3.4,2.9C167.5,80.5,164.8,79.1,163.4,79.6z"/>
	<path class="st4" d="M495.1,84.4C495.1,84.4,495.1,84.4,495.1,84.4c0-2,0-4,0-6c0-4-1.5-7.2-5.7-8.3c-4.6-1.1-9-0.9-12.4,2.9
		c-0.8,0.8-1.6,2-1.1,3.1c0.6,1.3,2,0.6,3.1,0.8c1.8,0.3,2.6-1,3.7-2c1.4-1.2,3-1.4,4.6-0.2c0.9,0.6,1.2,1.6,1.1,2.7
		c-0.3,2.3-2.2,1.5-3.5,1.8c-1,0.2-2,0.2-3,0.4c-5.3,1.1-7.9,4.7-6.7,9.2c1,3.8,5.6,6.1,10.1,4.9c1.1-0.3,2.2-1.2,3.2-1.1
		c6.6,0.2,6.6,0.3,6.5-6.2C495.1,85.8,495.1,85.1,495.1,84.4z M488.6,84.8c-0.2,3.4-1.7,4.4-4,4.4c-1.9,0-3.3-0.8-3.1-2.9
		c0.2-2.8,2.3-3.3,4.7-3.4C488.1,82.8,488.7,83.9,488.6,84.8z"/>
	<path class="st6" d="M620,83.4c-1.4-2.2-1.5-3.3,0.8-5.3c4.7-4,4.5-11.1-0.2-14.2c-5.3-3.5-11.6-2.9-16.9-1.4
		c-3.1,0.8-0.8,6.2-1.3,9.5c-0.2,1.8,0,3.7,0,5.5c0,4.3,0,8.6,0,13c0,0.2,0,0.3,0,0.5c0,1.5,0.2,2.6,2.1,2.7c1.9,0,2.1-1.2,2.1-2.6
		c0-1.7-0.2-3.3,0.1-5c0.2-1.8-1.2-4.5,1.8-4.9c2.9-0.5,6-0.9,7.5,2.9c1.2,2.9,2.9,5.6,4.4,8.4c0.9,1.6,2.6,1.8,3.9,1
		c1.5-0.9,0-2-0.4-2.9C622.7,88,621.5,85.6,620,83.4z M611.4,77.3c-5.3,0.4-5.1-2.6-4.7-6.2c-0.6-3.6-0.3-6.4,4.8-6
		c5.8,0.4,8.4,1.9,8.4,6.1C619.8,75.4,617.2,76.9,611.4,77.3z"/>
	<path class="st5" d="M189.8,69.7c-3.2,0.4-6.1,2-9.6,0.4c-1.8-0.8-3,0.5-2.9,2.7c0.1,3,0,6,0,9c0,2.8,0.1,5.6,0,8.5
		c-0.1,2.2,0.6,3.4,3.1,3.4c2.3,0,3.4-0.8,3.3-3.2c-0.1-3.8,0-7.6,0-11.4c0-2.9,1.4-4.4,4.2-4.4c2.8,0,3.6,1.8,3.6,4.3
		c-0.1,4,0.1,8,0,11.9c0,2.3,1.3,2.7,3.2,2.7c1.9,0,3.3-0.4,3.2-2.7c-0.1-5.1,0.1-10.3-0.4-15.4C197.1,71.1,194,69.2,189.8,69.7z"/>
	<path class="st7" d="M371.7,41c3.9-1.3,7.8-1.2,11.7,0.1c1.9,0.6,3.1,0,2.8-2c-1.7-9.6-4.6-18.9-8.9-27.8
		c-4.3,8.8-6.6,17.9-8.7,27.2C368,40.9,369.2,41.9,371.7,41z"/>
	<path class="st2" d="M554.5,70c-2.8,0-3.4,1.3-3.3,3.6c0.1,3.7,0,7.3,0,11c0,2.9-1.4,4.3-4.2,4.4c-2.9,0.1-3.6-1.8-3.7-4.3
		c0-3.8-0.1-7.6-0.1-11.5c0-2.3-0.8-3.2-3.2-3.2c-2.5,0-3.1,1.2-3.1,3.4c0.1,4.3-0.1,8.7,0.1,13c0.4,6,4.5,8.9,10.3,7.3
		c1.2-0.3,2.5-1.2,3.6-1.1c6.3,0.7,6.3,0.8,6.4-5.2c0-1.8,0-3.7,0-5.5c0-2.8-0.1-5.7,0-8.5C557.5,71.4,557.1,70.1,554.5,70z"/>
	<path class="st5" d="M35.9,61.9c-3.3,0-6.6,0-10,0c0,0,0,0,0,0c-3.5,0-7,0-10.5,0c-1.3,0-2.2,0.5-2.2,2c0,1-0.2,2.2,0.9,2.6
		c0.9,0.4,2,0.5,2.9,0.4c4.9-0.8,5.8,1.7,5.6,5.9c-0.3,5.8,0,11.6-0.1,17.4c0,2.6,1.1,3.4,3.6,3.4c2.4,0,3.1-1.1,3.1-3.3
		c-0.1-5.3,0-10.6,0-15.9c0-6.7,0-6.7,6.9-7.4c1.7-0.2,2.9-0.4,2.9-2.5C39.3,62.1,37.7,61.9,35.9,61.9z"/>
	<path class="st5" d="M231.7,74.3c0.7-0.9,3.2-2.8,0.8-4c-1.6-0.8-4.3-1.2-5.8,1.2c-1,1.6-2,3.2-3.4,5.5c-2-4.9-3.9-8.8-10.2-6.3
		c4.6,6,8.2,11.9,2,18.7c-0.8,0.8-2.7,2.7-1,3.7c1.7,1,4.2,1.2,5.9-0.9c1.3-1.6,1.7-4,4-5.2c1,1.6,2,3.1,2.9,4.7
		c1.4,2.5,4,2.5,5.7,1.6c2.5-1.3,0.2-3.3-0.7-4.4C227.8,84.1,227.6,79.4,231.7,74.3z"/>
	<path class="st8" d="M253.3,71.2c0-2.9,0-5.7,0-8.4c0-1.4,0-2.6-2-2.7c-1.9-0.1-2.1,1.1-2.1,2.5c0,9.4,0,18.9,0,28.3
		c0,1.4,0.6,3.5,1.9,2.5c2.9-2.1,4.9,0.3,7.3,0.6c3.4,0.4,6.2-0.4,8.3-3.3c3.2-4.3,3.5-13.1,0.4-17.5
		C264.5,69.4,260.9,68.8,253.3,71.2z M263.4,88.5c-2.1,2.6-4.8,2.8-7.6,1.2c-3.2-1.8-2.4-5.1-2.5-8.4c0.3-2.2-0.9-5.1,1.9-6.9
		c2.6-1.8,5.2-2,7.7,0.2C265.8,77.3,266.1,85.2,263.4,88.5z"/>
	<path class="st5" d="M88.8,75.1c3-1.4,4.4,0.5,5.9,2.9c1,1.7,3.4,1.3,5,0.4c1.4-0.8,0.4-2.4-0.1-3.6c-0.8-1.9-2.2-3.4-4.2-4.1
		c-4.1-1.6-8.3-1.7-11.8,1.4c-4.4,3.8-4.6,9-3.4,14.3c1,4.3,3.8,7,8.2,7.7c4,0.6,7.7-0.2,10.3-3.6c0.9-1.2,2.6-3,0.8-4.3
		c-1.3-1-3.8-1.2-5,0.5c-1.6,2.3-3.4,3.3-5.9,2.1c-2.7-1.3-2.4-4.1-2.6-6.6C86.3,79.4,85.8,76.4,88.8,75.1z"/>
	<path class="st8" d="M689,80.6c-0.8-4.1,4.7-5.7,6.6-9.1c0.2-0.3,0.2-0.6,0.4-1.3c-7-0.9-8,6.6-13.4,8.8c0-5.4,0.1-10.3,0-15.3
		c0-1.4,0.8-3.7-2-3.6c-2.7,0-2,2.2-2,3.7c-0.1,8.3-0.1,16.6,0,24.9c0,1.7-1.3,4.7,1.8,4.8c3.7,0.1,1.6-3.2,2.2-4.9
		c0.1-0.5,0.1-1,0-1.5c-0.2-1.5,0.7-2.6,1.9-3.3c1.8-1,2.2,1,2.9,1.8c1.6,1.9,3.1,3.9,4.5,6c1.4,2,3.1,2.7,5.6,1.3
		c-0.8-1.1-1.4-2.1-2.1-3C693.1,86.8,689.6,84,689,80.6z"/>
	<path class="st9" d="M707,70.1c-5.1,1.7-8.1,7.7-7.1,14.4c0.9,6,4.9,9.6,11,9.6c2.2,0.2,4.4-0.5,6.2-2c0.9-0.8,2.6-1.5,1.5-3.1
		c-1.2-1.6-2.2-0.2-3.3,0.4c-4.5,2.5-8.8,1.4-10.5-2.6c-1-2.3-0.8-3.8,2.3-3.7c3.3,0.1,6.6,0,10,0c1.4,0,2.5,0,2.9-1.9
		C721.3,73.9,714.1,67.7,707,70.1z M710.1,80c-1.8-1.2-5.4,1.4-5.5-2.3c-0.1-2.8,2.2-4.7,5.4-4.8c3.1-0.1,5.4,1.5,5.4,4.6
		C715.4,81.6,711.8,78.8,710.1,80z"/>
	<path class="st10" d="M639,69.6c-6.4,0-10.7,5.1-10.6,12.4c0.1,7.4,4.4,12.2,11,12.1C645.8,94,650,89,650,81.7
		C649.9,74.3,645.5,69.5,639,69.6z M638.9,90.7c-4-0.2-6.6-3.8-6.5-9.1c0.1-5.4,2.7-8.7,6.9-8.6c4.1,0.1,6.5,3.5,6.5,9
		C645.7,87.4,643,90.9,638.9,90.7z"/>
	<path class="st9" d="M290.3,70.2c-2.1-0.9-3.3,0.5-3.9,2.6c-1.3,4.5-2.7,8.9-4.6,14.7c-2-6-3.7-10.7-5.2-15.4
		c-0.6-1.9-1.9-2.3-3.4-1.9c-2.3,0.6-0.9,2.1-0.5,3.1c1.9,5.5,3.9,10.9,5.9,16.4c1.9,5.3,1.2,7.2-3.9,9.9c-1,0.5-1.8,0.9-1.6,2.1
		c0.2,1.6,1.6,1.5,2.7,1.4c3.8-0.2,5.4-2.9,6.5-6c2.7-7.7,5.4-15.4,8-23.1C290.7,72.9,292.4,71.2,290.3,70.2z"/>
	<path class="st11" d="M666.8,73.5c0.9,0.3,1.7,1.1,2.2,1.9c1,1.6,2,3.9,3.9,2.4c1.9-1.5,0.1-3.6-1.1-5.1c-1.2-1.5-2.8-2.3-4.6-2.8
		c-7.7-1.8-13.1,3.1-13.2,11.9c0,6.1,2.2,10.2,6.7,11.7c4.1,1.4,8,0.8,11-2.4c1.1-1.2,3.1-3,1.1-4.6c-1.7-1.3-2.7,0.7-3.8,2
		c-2.2,2.7-5.1,3-8,1.2c-3-1.9-4-9.6-1.9-13.4C660.9,73.1,663.5,72.4,666.8,73.5z"/>
	<path class="st3" d="M51.1,69.9c-1.1,0.3-2.1,1.2-3.2,1.2c-6.8,0.1-6.8,0-6.8,6.7c0,1.2,0,2.3,0,3.5c0,0,0,0,0,0
		c0,3.2,0.1,6.3,0,9.5c-0.1,2.6,1.5,2.9,3.5,2.9c2.2,0,2.8-1.1,2.7-3.1c-0.1-2.7,0.1-5.3,0-8c-0.2-3.8,0.1-7,5.1-7.1
		c2.6-0.1,1.8-2.3,1.8-3.8C54.3,69.3,52.5,69.6,51.1,69.9z"/>
	<path class="st12" d="M528.5,70c-2.5,0-3.1,1.2-3.1,3.4c0.1,2.6,0,5.3,0,7.9c0,3,0.1,6,0,8.9c-0.1,2.6,0.9,3.6,3.5,3.5
		c2.5,0,3.1-1.3,3.1-3.4c0-5.6-0.1-11.2,0-16.9C532,70.9,531.1,69.9,528.5,70z"/>
	<path class="st13" d="M732.5,90.5c-2.2-0.4-2.2-2.2-2.2-3.9c0-3.3,0-6.6,0-10c0-1.9-0.1-3.8,2.7-3.6c1,0,1.5-0.6,1.4-1.6
		c0-0.7-0.4-1.3-1.2-1.3c-3,0.2-2.9-1.9-3-4c0-1.1-0.4-1.9-1.7-2c-0.8,0-2.1,0-2.1,0.8c0,3.1-0.9,5.2-4.3,5.8c-0.5,0.1-0.3,2,0.5,2
		c5.2,0.1,3.2,4,3.4,6.5c0.3,3.1,0,6.3,0.2,9.5c0.2,3,1.7,5,4.9,5.3c1.2-0.2,2.8,0.5,3.3-1.3C734.8,91.3,733.8,90.7,732.5,90.5z"/>
	<path class="st3" d="M209.4,81.8c0-2.8-0.1-5.6,0-8.4c0.1-2.1-0.4-3.4-3-3.4c-2.2,0-3.4,0.7-3.3,3.1c0.1,5.8,0.1,11.6,0,17.4
		c0,2.4,1,3.1,3.3,3.2c2.5,0,3.1-1.2,3-3.4C209.3,87.5,209.4,84.7,209.4,81.8z"/>
	<path class="st14" d="M364.9,17.3c-13.1-1.7-40.4,17.4-39.8,27.9C335,30.6,348.7,22.2,364.9,17.3z"/>
	<path class="st15" d="M429.6,44.6c-0.6-11-29.5-30.5-41-26.8C406.1,22.3,419.8,30.6,429.6,44.6z"/>
	<path class="st16" d="M413.1,130.6c-0.7,0.5-1.3,1.2-0.6,2.1c0.7,0.8,1.5,0.3,2.2-0.1c5.8-4,10.7-8.8,14.8-14.5
		c0.8-1.1,1.1-2.3-0.2-4.1C424.8,120.6,419.5,126.1,413.1,130.6z"/>
	<path class="st17" d="M324.8,113.5c0.4,7,11.9,18.6,18.3,18.8C336.4,126.9,330.4,121,324.8,113.5z"/>
	<path class="st18" d="M206,60.8c-1.9,0-3.2,1-3.2,2.9c0,2.2,1.4,3.2,3.5,3.2c1.8-0.1,3.2-0.9,3.2-3C209.6,61.7,208.1,60.8,206,60.8
		z"/>
	<path class="st19" d="M528.8,60.8c-2.1,0-3.6,0.8-3.5,3.1c0.1,2,1.4,2.8,3.2,3c2.1-0.1,3.6-1,3.6-3.2
		C532.1,61.8,530.8,60.8,528.8,60.8z"/>
</g>
</svg>
